<svg xmlns="http://www.w3.org/2000/svg" viewBox="0 0 32 32">
  <rect width="32" height="32" rx="6" fill="#E85D26"/>
  <rect x="4" y="4" width="9" height="9" rx="1.5" fill="white"/>
  <rect x="6" y="6" width="5" height="5" rx="0.5" fill="#E85D26"/>
  <rect x="19" y="4" width="9" height="9" rx="1.5" fill="white"/>
  <rect x="21" y="6" width="5" height="5" rx="0.5" fill="#E85D26"/>
  <rect x="4" y="19" width="9" height="9" rx="1.5" fill="white"/>
  <rect x="6" y="21" width="5" height="5" rx="0.5" fill="#E85D26"/>
  <rect x="19" y="19" width="4" height="4" rx="0.5" fill="white"/>
  <rect x="24" y="19" width="4" height="4" rx="0.5" fill="white"/>
  <rect x="19" y="24" width="4" height="4" rx="0.5" fill="white"/>
  <rect x="24" y="24" width="4" height="4" rx="0.5" fill="white"/>
  <rect x="14" y="4" width="2" height="2" rx="0.5" fill="white"/>
  <rect x="14" y="8" width="2" height="5" rx="0.5" fill="white"/>
  <rect x="4" y="14" width="9" height="2" rx="0.5" fill="white"/>
  <rect x="14" y="14" width="2" height="2" rx="0.5" fill="white"/>
</svg>
